<?xml version="1.0" standalone="no"?>
<!DOCTYPE svg PUBLIC "-//W3C//DTD SVG 20010904//EN"
 "http://www.w3.org/TR/2001/REC-SVG-20010904/DTD/svg10.dtd">
<svg version="1.0" xmlns="http://www.w3.org/2000/svg"
 width="1800.000000pt" height="1200.000000pt" viewBox="0 0 1800.000000 1200.000000"
 preserveAspectRatio="xMidYMid meet">

<g transform="translate(0.000000,1200.000000) scale(0.100000,-0.100000)"
fill="#000000" stroke="none">
<path d="M0 6000 l0 -6000 9000 0 9000 0 0 6000 0 6000 -8839 0 -8838 0 -5
-77 c-3 -45 -17 -114 -33 -163 -26 -80 -27 -92 -22 -221 4 -116 9 -149 34
-220 52 -151 150 -268 259 -309 71 -26 245 -54 288 -46 19 4 76 39 132 81 172
130 186 140 182 119 -3 -20 -133 -129 -232 -195 -51 -34 -66 -39 -115 -39 -87
0 -230 28 -290 57 -162 78 -290 308 -291 518 0 87 18 227 40 321 11 45 20 102
20 128 l0 46 -145 0 -145 0 0 -6000z m9641 5907 c-17 -17 -22 -2 -9 29 11 28
12 29 16 5 2 -13 -1 -28 -7 -34z m344 -14 c13 -58 13 -63 5 -63 -13 0 -40 48
-40 70 0 30 29 24 35 -7z m-4123 -139 c21 -4 35 -10 32 -15 -7 -11 -114 -12
-114 -1 0 22 19 26 82 16z m-5782 -186 c0 -16 -3 -19 -11 -11 -6 6 -8 16 -5
22 11 17 16 13 16 -11z m3720 -22 c0 -7 -34 -49 -76 -92 -93 -96 -137 -160
-164 -238 -26 -76 -139 -514 -150 -584 -11 -63 6 -174 45 -297 14 -44 27 -102
29 -130 2 -27 2 -39 -1 -25 -2 14 -17 66 -33 115 -71 219 -77 300 -35 455 14
52 43 165 65 250 56 214 75 270 119 337 33 50 185 223 197 223 2 0 4 -6 4 -14z
m6127 -18 c-3 -8 -6 -5 -6 6 -1 11 2 17 5 13 3 -3 4 -12 1 -19z m-10 -60 c-3
-7 -5 -2 -5 12 0 14 2 19 5 13 2 -7 2 -19 0 -25z m0 -180 c-2 -13 -4 -3 -4 22
0 25 2 35 4 23 2 -13 2 -33 0 -45z m-4581 -30 c4 -5 -4 -8 -17 -6 -12 1 -24 8
-26 15 -5 14 34 6 43 -9z m4591 -55 c-3 -10 -5 -2 -5 17 0 19 2 27 5 18 2 -10
2 -26 0 -35z m-4492 17 c3 -5 2 -10 -4 -10 -5 0 -13 5 -16 10 -3 6 -2 10 4 10
5 0 13 -4 16 -10z m4502 -82 c-3 -7 -5 -2 -5 12 0 14 2 19 5 13 2 -7 2 -19 0
-25z m10 -70 c-3 -7 -5 -2 -5 12 0 14 2 19 5 13 2 -7 2 -19 0 -25z m10 -105
c-2 -16 -4 -5 -4 22 0 28 2 40 4 28 2 -13 2 -35 0 -50z m-51 -170 c-8 -15 -15
-25 -16 -21 0 12 23 58 27 54 3 -2 -2 -17 -11 -33z m-23 -48 c-3 -9 -8 -14
-10 -11 -3 3 -2 9 2 15 9 16 15 13 8 -4z m-6113 -51 c0 -8 -7 -14 -15 -14 -15
0 -21 21 -9 33 10 9 24 -2 24 -19z m6091 3 c-10 -9 -11 -8 -5 6 3 10 9 15 12
12 3 -3 0 -11 -7 -18z m-18 -32 c-3 -9 -8 -14 -10 -11 -3 3 -2 9 2 15 9 16 15
13 8 -4z m-20 -40 c-3 -9 -8 -14 -10 -11 -3 3 -2 9 2 15 9 16 15 13 8 -4z
m-37 -80 c-27 -59 -45 -94 -46 -84 0 10 60 139 65 139 3 0 -6 -25 -19 -55z
m-28 -209 c15 -7 41 -16 57 -19 118 -23 146 -29 142 -33 -14 -15 -237 43 -237
61 0 8 9 6 38 -9z m245 -96 c-9 -32 -20 -32 -15 0 2 17 8 28 12 25 5 -3 6 -14
3 -25z m-6533 -301 c-28 -147 -35 -254 -21 -307 15 -53 82 -124 135 -142 33
-10 44 -9 99 13 39 16 83 25 119 25 115 1 229 44 391 148 37 24 67 39 67 34 0
-6 -36 -37 -81 -70 -105 -77 -218 -119 -349 -129 -53 -5 -123 -18 -158 -31
-61 -21 -65 -21 -107 -6 -45 18 -129 98 -144 139 -10 25 5 164 33 322 8 44 18
107 23 140 8 59 8 59 11 17 2 -24 -6 -93 -18 -153z m-410 -33 c0 -3 -4 -8 -10
-11 -5 -3 -10 -1 -10 4 0 6 5 11 10 11 6 0 10 -2 10 -4z m6279 -274 c1 -7 -3
-10 -9 -7 -5 3 -10 18 -9 33 0 24 1 25 9 7 5 -11 9 -26 9 -33z m-5205 -275
c46 -43 56 -59 56 -85 0 -53 -25 -51 -82 4 -77 76 -101 134 -54 134 15 0 44
-19 80 -53z m-374 -106 c0 -6 -4 -13 -10 -16 -5 -3 -10 1 -10 9 0 9 5 16 10
16 6 0 10 -4 10 -9z m9330 -101 c0 -5 -4 -10 -10 -10 -5 0 -10 5 -10 10 0 6 5
10 10 10 6 0 10 -4 10 -10z m-1031 -94 c-9 -8 -10 -3 -5 23 3 18 7 41 8 50 1
9 3 -1 5 -23 3 -22 -1 -43 -8 -50z m215 -1 c-6 -15 -35 -35 -50 -35 -4 0 3 11
16 25 26 28 42 33 34 10z m-419 -64 c10 -17 -12 -21 -25 -6 -10 12 -10 15 3
15 9 0 18 -4 22 -9z m1375 -61 c0 -6 -6 -10 -14 -10 -16 0 -38 24 -30 33 9 8
44 -11 44 -23z m-2507 -682 l19 -33 -21 25 c-12 14 -27 34 -33 45 -9 17 -9 18
3 8 8 -6 22 -26 32 -45z m-154 -143 c0 -5 -4 -3 -9 5 -5 8 -9 22 -9 30 0 16
17 -16 18 -35z m31 -82 c0 -14 101 -105 138 -124 15 -8 57 -33 94 -56 36 -24
71 -43 76 -43 5 0 16 -7 23 -17 12 -14 10 -14 -21 2 -74 38 -227 130 -263 159
-38 30 -63 73 -72 125 -5 24 -4 24 9 -4 9 -16 15 -35 16 -42z m371 -118 c12
-23 -80 75 -113 120 -12 17 6 1 41 -35 34 -36 67 -74 72 -85z m-196 65 c13 -6
15 -9 5 -9 -8 0 -22 4 -30 9 -18 12 -2 12 25 0z m117 -72 c29 -34 34 -48 19
-48 -9 0 -34 32 -55 68 -14 24 9 11 36 -20z m-10122 -22 c0 -18 -15 -36 -31
-36 -21 0 -22 1 -13 24 5 14 44 24 44 12z m10263 -92 c29 -31 66 -80 83 -110
17 -30 65 -87 107 -127 71 -68 77 -77 100 -152 53 -171 141 -363 224 -494 55
-86 283 -331 307 -331 45 1 156 27 180 43 29 19 79 118 97 192 6 28 16 59 22
69 8 17 10 18 19 3 12 -23 -46 -196 -84 -248 -18 -25 -47 -49 -75 -61 -58 -26
-153 -35 -192 -18 -18 7 -86 77 -168 171 -111 128 -151 183 -206 282 -73 132
-134 278 -166 397 -18 70 -24 79 -83 132 -35 32 -67 57 -71 58 -12 0 -107 98
-137 140 l-25 35 38 -29 c20 -16 37 -32 37 -36 0 -4 11 -12 25 -18 49 -22 26
12 -51 75 -29 24 -54 52 -57 63 -10 37 23 22 76 -36z m-5832 -687 c-1 -12 -15
-9 -19 4 -3 6 1 10 8 8 6 -3 11 -8 11 -12z m11468 -63 c22 -29 27 -49 12 -58
-14 -9 -71 43 -71 65 0 28 35 24 59 -7z m-13188 -17 c-8 -8 -11 -7 -11 4 0 20
13 34 18 19 3 -7 -1 -17 -7 -23z m-3408 -12 c-3 -9 -8 -14 -10 -11 -3 3 -2 9
2 15 9 16 15 13 8 -4z m1593 -107 c11 -22 13 -33 5 -41 -16 -16 -28 1 -37 47
-8 46 7 43 32 -6z m-1432 -133 c29 -8 89 -22 134 -30 92 -16 245 -55 239 -61
-2 -2 -39 5 -83 15 -43 11 -126 27 -184 37 -58 9 -121 24 -140 34 -45 24 -113
82 -142 123 -14 20 4 8 51 -36 56 -51 86 -71 125 -82z m4716 130 c7 -8 18 -15
26 -15 7 0 18 -10 25 -21 10 -20 9 -21 -12 -15 -13 5 -36 10 -51 13 -31 6 -53
27 -43 43 9 15 41 12 55 -5z m-3960 -78 c0 -2 -12 -14 -27 -28 l-28 -24 24 28
c23 25 31 32 31 24z m-89 -77 c-24 -20 -71 -27 -71 -11 0 11 46 29 75 30 19 0
18 -1 -4 -19z m15156 -92 c26 -28 68 -135 78 -199 6 -42 1 -91 -46 -414 -11
-79 -35 -134 -79 -185 -37 -44 -38 -35 -1 38 35 70 64 191 92 390 21 145 21
155 6 218 -12 45 -31 86 -63 131 -44 62 -37 75 13 21z m-15407 12 c8 -5 11
-10 5 -10 -5 0 -17 5 -25 10 -8 5 -10 10 -5 10 6 0 17 -5 25 -10z m102 -71
c35 -34 54 -55 43 -48 -11 8 -24 19 -30 26 -5 6 -30 28 -53 47 -24 20 -39 36
-33 36 6 0 39 -28 73 -61z m94 -90 c10 -12 42 -34 69 -50 56 -32 54 -40 -3 -9
-44 23 -112 79 -96 80 6 0 19 -10 30 -21z m206 -105 c104 -37 310 -126 304
-131 -2 -3 -46 14 -98 37 -51 24 -136 58 -188 77 -87 32 -113 43 -97 43 3 0
39 -12 79 -26z m479 -111 c-10 -17 -10 -16 -11 3 0 23 13 41 18 25 2 -6 -1
-18 -7 -28z m-131 -33 c8 -5 11 -10 5 -10 -5 0 -17 5 -25 10 -8 5 -10 10 -5
10 6 0 17 -5 25 -10z m87 -26 c-3 -3 -12 -4 -19 -1 -8 3 -5 6 6 6 11 1 17 -2
13 -5z m211 -11 c-38 -2 -98 -2 -135 0 -38 2 -7 3 67 3 74 0 105 -1 68 -3z
m339 -19 c-3 -3 -12 -4 -19 -1 -8 3 -5 6 6 6 11 1 17 -2 13 -5z m108 -34 c13
-6 15 -9 5 -9 -8 0 -22 4 -30 9 -18 12 -2 12 25 0z m8493 -831 c-18 -12 -23 8
-6 28 12 15 13 15 16 -2 2 -10 -2 -21 -10 -26z m-178 -204 c126 -54 154 -81
147 -138 -7 -52 -67 -172 -117 -236 -37 -47 -128 -107 -150 -99 -5 2 20 27 56
56 71 58 132 143 163 228 30 78 18 97 -84 145 -44 20 -91 49 -104 63 -14 14
-23 26 -20 26 2 0 51 -20 109 -45z m4880 -996 c0 -21 -4 -41 -10 -44 -6 -3
-10 4 -10 17 0 13 -3 41 -6 63 -5 38 -4 39 10 21 9 -11 16 -37 16 -57z m-6746
-910 c31 -77 31 -82 10 -114 -31 -47 -236 -196 -250 -182 -3 3 36 37 88 75 51
38 104 82 117 96 25 26 25 27 12 103 -7 42 -15 83 -18 92 -4 11 -3 13 5 6 5
-5 22 -40 36 -76z m8539 -601 c6 -19 -3 -38 -18 -38 -18 0 -26 15 -19 34 7 19
31 21 37 4z m-2592 -95 c17 -42 38 -172 38 -223 l-1 -45 -8 35 c-5 19 -13 67
-20 105 -6 39 -16 87 -21 108 -9 34 -13 38 -32 32 -80 -24 -233 -45 -332 -43
l-110 1 135 8 c74 5 171 17 215 28 112 27 123 26 136 -6z m-10187 -59 c23 -9
20 -41 -4 -49 -12 -4 -28 -1 -36 6 -13 10 -12 14 2 30 19 22 17 21 38 13z m29
-461 c9 -3 24 0 32 7 11 9 19 10 26 3 17 -17 -9 -27 -66 -26 -27 0 -63 -6 -78
-14 -16 -8 -34 -12 -40 -10 -7 3 -4 8 8 13 11 4 31 16 44 26 14 11 32 16 40
12 9 -3 24 -9 34 -11z m-212 -152 c13 -10 38 -25 56 -34 24 -13 30 -22 26 -37
-9 -35 -21 -33 -63 12 -65 69 -76 104 -19 59z m119 -5 c0 -2 -8 -10 -17 -17
-16 -13 -17 -12 -4 4 13 16 21 21 21 13z m11734 -162 c10 -25 -1 -29 -14 -5
-6 12 -7 21 -1 21 5 0 12 -7 15 -16z m-2701 -230 c54 -18 61 -34 17 -34 -34 0
-90 25 -90 40 0 14 19 12 73 -6z m217 -195 c12 -23 20 -43 18 -45 -3 -2 -14
17 -26 41 -27 56 -20 60 8 4z m1617 -1191 c-3 -8 -6 -5 -6 6 -1 11 2 17 5 13
3 -3 4 -12 1 -19z"/>
</g>
</svg>
